<?xml version="1.0" encoding="iso-8859-1"?>
<!-- Generator: Adobe Illustrator 19.0.0, SVG Export Plug-In . SVG Version: 6.00 Build 0)  -->
<svg version="1.1" id="Capa_1" xmlns="http://www.w3.org/2000/svg" xmlns:xlink="http://www.w3.org/1999/xlink" x="0px" y="0px"
	 viewBox="0 0 512 512" style="enable-background:new 0 0 512 512;" xml:space="preserve">
<path style="fill:#F2A077;" d="M443.779,317.503v-5.255c0-13.293-10.776-24.07-24.07-24.07H310.987l23.018,154.537h117.573
	c14.582,0,26.402-11.821,26.402-26.402v-2.814H512v-95.996L443.779,317.503L443.779,317.503z"/>
<path style="fill:#D6774D;" d="M464.143,394.031c0,14.582-11.821,26.402-26.402,26.402H334.005l-19.699-132.255h-3.319
	l23.018,154.537h117.573c14.581,0,26.402-11.821,26.402-26.402v-2.814H512v-22.282h-47.857V394.031z"/>
<path style="fill:#75DC5E;" d="M365.563,216.604c-4.404-16.688-14.063-48.964-20.38-64.698c5.874-4.026,8.878-11.441,6.93-18.711
	l0,0c-2.47-9.217-11.943-14.686-21.159-12.217l-34.469,9.236c-9.217,2.47-14.686,11.943-12.216,21.16l0,0
	c1.948,7.27,8.257,12.189,15.357,12.739c2.396,16.785,10.169,49.566,14.7,66.22l0,0c-10.218,18.035-17.163,40.496-11.798,60.518
	l48.013,179.186c1.504,5.614,7.275,8.946,12.89,7.442l83.18-22.288c5.614-1.504,8.946-7.275,7.442-12.89L406.04,263.114
	C400.675,243.092,383.43,227.113,365.563,216.604L365.563,216.604z"/>
<path style="fill:#2AAD52;" d="M454.052,442.301L406.04,263.115c-5.365-20.022-22.61-36.001-40.476-46.511l0,0
	c-4.404-16.688-14.063-48.964-20.38-64.699c5.874-4.026,8.878-11.441,6.93-18.71c-2.47-9.216-11.943-14.686-21.159-12.216
	l-14.808,3.968c7.238-1.939,15.107,3.96,17.577,13.176c1.948,7.27-0.057,14.417-4.538,18.07
	c5.896,15.847,15.353,48.177,19.77,64.862l0,0c14.852,11.317,29.501,27.992,34.866,48.014l48.013,179.187
	c1.504,5.614-0.851,11.123-5.26,12.305l20.036-5.368C452.225,453.686,455.557,447.915,454.052,442.301z"/>
<path style="fill:#D2F5FF;" d="M392.411,420.095L392.411,420.095c-28.697,7.689-58.194-9.341-65.884-38.038l-8.55-31.911
	c-7.689-28.697,9.341-58.194,38.038-65.884l0,0c28.697-7.689,58.194,9.341,65.884,38.038l8.55,31.911
	C438.138,382.909,421.108,412.406,392.411,420.095z"/>
<path style="fill:#9CC9D3;" d="M388.267,285.659l31.377,117.101c10.91-12.992,15.528-30.916,10.805-48.546l-8.551-31.914
	C417.173,304.669,404.212,291.454,388.267,285.659z"/>
<path style="fill:#F7AA86;" d="M306.889,288.178h-17.913c-10.669,0-19.317,8.649-19.317,19.317l0,0
	c0,10.668,8.649,19.317,19.317,19.317h17.913c10.668,0,19.317-8.649,19.317-19.317l0,0
	C326.206,296.827,317.557,288.178,306.889,288.178z"/>
<path style="fill:#E88E6B;" d="M325.329,326.812h-17.913c-10.669,0-19.317,8.649-19.317,19.317l0,0
	c0,10.668,8.649,19.317,19.317,19.317h17.913c10.668,0,19.317-8.649,19.317-19.317l0,0
	C344.646,335.461,335.998,326.812,325.329,326.812z"/>
<path style="fill:#FFCCAA;" d="M335.346,365.447h-17.913c-10.669,0-19.317,8.649-19.317,19.317l0,0
	c0,10.668,8.649,19.317,19.317,19.317h17.913c10.668,0,19.317-8.649,19.317-19.317l0,0
	C354.663,374.095,346.014,365.447,335.346,365.447z"/>
<path style="fill:#E88E6B;" d="M342.962,404.081h-17.913c-10.669,0-19.317,8.649-19.317,19.317l0,0
	c0,10.668,8.649,19.317,19.317,19.317h17.913c10.668,0,19.317-8.649,19.317-19.317l0,0
	C362.279,412.73,353.63,404.081,342.962,404.081z"/>
<path style="fill:#FFCCAA;" d="M406.798,258.276h-66.655c-1.208,0-2.187,0.979-2.187,2.187v6.64
	c0,18.073,14.659,32.724,32.732,32.724c4.759,0,20.119,0,20.119,0v17.397c0,26.632,21.59,48.222,48.222,48.222h15.528
	c6.663,0,12.064-5.401,12.064-12.064V332.63v-14.533C466.621,285.059,439.838,258.276,406.798,258.276z"/>
<path style="fill:#D7875F;" d="M174.043,267.103v-6.64c0-1.208-0.979-2.187-2.187-2.187h-66.654
	c-33.039,0-59.823,26.783-59.823,59.823v14.533v20.752c0,6.662,5.401,12.064,12.064,12.064H72.97
	c26.632,0,48.222-21.59,48.222-48.222v-17.397c0,0,15.359,0,20.119,0C159.384,299.827,174.043,285.176,174.043,267.103z"/>
<path style="fill:#75DC5E;" d="M146.436,216.604c4.404-16.688,14.063-48.964,20.38-64.698c-5.874-4.026-8.878-11.441-6.93-18.711
	l0,0c2.47-9.217,11.943-14.686,21.159-12.217l34.469,9.236c9.217,2.47,14.686,11.943,12.216,21.16l0,0
	c-1.948,7.27-8.257,12.189-15.357,12.739c-2.396,16.785-10.169,49.566-14.7,66.22l0,0c10.218,18.035,17.163,40.496,11.798,60.518
	l-48.013,179.186c-1.504,5.614-7.275,8.946-12.89,7.442l-83.18-22.288c-5.614-1.504-8.946-7.275-7.442-12.89l48.013-179.187
	C111.325,243.092,128.57,227.113,146.436,216.604L146.436,216.604z"/>
<path style="fill:#2AAD52;" d="M215.515,130.214l-15.816-4.238c7.104,1.903,10.86,10.918,8.39,20.134
	c-1.948,7.27-7.189,12.475-12.802,13.423c-2.846,16.665-10.835,49.388-15.351,66.046c6.999,17.173,11.171,38.89,5.806,58.912
	l-48.013,179.186c-1.504,5.614-6.232,9.226-10.559,8.066l21.399,5.734c5.614,1.505,11.385-1.827,12.89-7.442l48.013-179.186
	c5.365-20.022-1.58-42.483-11.798-60.518l0,0c4.531-16.654,12.304-49.435,14.7-66.22c7.1-0.55,13.409-5.469,15.357-12.739
	C230.201,142.157,224.731,132.684,215.515,130.214z"/>
<path style="fill:#D2F5FF;" d="M119.589,420.095L119.589,420.095c28.697,7.689,58.194-9.341,65.884-38.038l8.55-31.911
	c7.689-28.697-9.341-58.194-38.038-65.884l0,0c-28.697-7.689-58.194,9.341-65.884,38.038l-8.55,31.911
	C73.862,382.909,90.892,412.406,119.589,420.095z"/>
<path style="fill:#9CC9D3;" d="M181.64,299.803l-32.063,119.662c14.972-4.702,27.597-15.856,33.764-31.091l11.994-44.764
	C197.612,327.333,192.256,311.361,181.64,299.803z"/>
<path style="fill:#D7875F;" d="M223.024,326.812c10.668,0,19.317-8.649,19.317-19.317c0-10.669-8.649-19.317-19.317-19.317h-17.913
	c-1.432,0-112.821,0-112.821,0c-5.806,0-11.131,2.056-15.288,5.479v-28.323c-18.655,9.991-31.392,29.58-31.613,52.169H0v95.996
	h34.019v2.814c0,14.581,11.821,26.402,26.402,26.402h117.573h8.956c10.668,0,19.317-8.649,19.317-19.317
	s-8.649-19.317-19.317-19.317h7.616c10.669,0,19.317-8.649,19.317-19.317s-8.648-19.317-19.317-19.317h10.017
	c10.668,0,19.317-8.649,19.317-19.317s-8.649-19.317-19.317-19.317c0.158,0,0.33,0,0.528,0h17.913V326.812z"/>
<path style="fill:#B05A3D;" d="M186.488,421.958h-8.493H79.201c-14.581,0-26.402-11.821-26.402-26.402
	c0-1.554-1.26-2.814-2.814-2.814H0v20.757h34.019v2.814c0,14.581,11.821,26.402,26.402,26.402h117.573h8.957
	c10.668,0,19.317-8.649,19.317-19.317c0-3.852-1.14-7.432-3.084-10.446C199.639,418.388,193.411,421.958,186.488,421.958z"/>
<g>
	<path style="fill:#8BA7BC;" d="M256,80.725c-4.143,0-7.5-3.357-7.5-7.5V41.66c0-4.143,3.357-7.5,7.5-7.5s7.5,3.357,7.5,7.5v31.565
		C263.5,77.368,260.143,80.725,256,80.725z"/>
	<path style="fill:#8BA7BC;" d="M229.596,88.778c-2.193,0-4.366-0.957-5.849-2.799l-21.994-27.337
		c-2.597-3.227-2.085-7.948,1.143-10.545c3.229-2.596,7.947-2.085,10.545,1.143l21.994,27.337c2.597,3.227,2.085,7.948-1.143,10.545
		C232.906,88.236,231.245,88.778,229.596,88.778z"/>
	<path style="fill:#8BA7BC;" d="M282.404,88.778c-1.65,0-3.311-0.542-4.696-1.656c-3.228-2.597-3.739-7.318-1.143-10.545
		L298.56,49.24c2.596-3.229,7.317-3.737,10.545-1.143c3.228,2.597,3.739,7.318,1.143,10.545l-21.994,27.337
		C286.771,87.821,284.598,88.778,282.404,88.778z"/>
</g>
<g>
</g>
<g>
</g>
<g>
</g>
<g>
</g>
<g>
</g>
<g>
</g>
<g>
</g>
<g>
</g>
<g>
</g>
<g>
</g>
<g>
</g>
<g>
</g>
<g>
</g>
<g>
</g>
<g>
</g>
</svg>
